<?xml version="1.0" encoding="UTF-8" standalone="no"?>
<!DOCTYPE svg PUBLIC "-//W3C//DTD SVG 1.1//EN" "http://www.w3.org/Graphics/SVG/1.1/DTD/svg11.dtd">
<svg width="100%" height="100%" viewBox="0 0 16 16" version="1.1" xmlns="http://www.w3.org/2000/svg" xmlns:xlink="http://www.w3.org/1999/xlink" xml:space="preserve" xmlns:serif="http://www.serif.com/" style="fill-rule:evenodd;clip-rule:evenodd;stroke-linejoin:round;stroke-miterlimit:2;">
    <path d="M1.885,0.511C2.212,0.184 2.656,0.001 3.118,0.001C3.656,0.001 4.165,0.25 4.495,0.674L6.29,2.98C6.619,3.403 6.735,3.954 6.605,4.474L6.058,6.664C6.001,6.894 6.068,7.139 6.236,7.307L8.693,9.764C8.861,9.932 9.106,10 9.337,9.942L11.526,9.395C12.046,9.265 12.597,9.381 13.02,9.71L15.326,11.504C16.155,12.149 16.231,13.374 15.489,14.115L14.455,15.149C13.715,15.889 12.609,16.214 11.578,15.851C8.939,14.923 6.543,13.412 4.568,11.431C2.587,9.456 1.077,7.06 0.148,4.422C-0.214,3.392 0.111,2.285 0.851,1.545L1.885,0.511Z" style="fill:rgb(37,37,37);"/>
</svg>
